<svg xmlns="http://www.w3.org/2000/svg" version="1.1" xmlns:xlink="http://www.w3.org/1999/xlink" x="0" y="0" viewBox="0 0 64 64" style="enable-background:new 0 0 512 512" xml:space="preserve">
                        <g>
                          <path d="M59 47.487h-1.81v-27.61a5.223 5.223 0 0 0-5-5.409h-3.71a1 1 0 0 0 0 2h3.71a3.228 3.228 0 0 1 3 3.41v27.609H26.03a1.013 1.013 0 0 0-.996 1.02 34.358 34.358 0 0 0 1.49 3.57 2 2 0 0 0 1.828 1.188h7.296a2 2 0 0 0 1.828-1.188l1.149-2.589L58 49.487v2.74a2.823 2.823 0 0 1-2.82 2.82H8.82A2.823 2.823 0 0 1 6 52.227v-2.74h16.03a1 1 0 0 0 0-2H8.81v-27.61a3.228 3.228 0 0 1 3-3.41h6.89c-3.535 9.154 3.658 19.594 13.63 19.48 11.076.08 18.127-12.336 12.587-21.706a14.54 14.54 0 0 0-25.162-.073 1.646 1.646 0 0 1-.163.299H11.81a5.223 5.223 0 0 0-5 5.41v27.61H5a1 1 0 0 0-1 1v3.74a4.825 4.825 0 0 0 4.82 4.82h46.36a4.825 4.825 0 0 0 4.82-4.82v-3.74a1 1 0 0 0-1-1zm-23.352 3.778h-7.296l-.788-1.775h8.872zm-4.332-17.37a12.517 12.517 0 0 1-9.29-5.372l2.072-1.196a10.137 10.137 0 0 0 7.218 4.188zm2 .001v-2.38a10.12 10.12 0 0 0 7.224-4.178l2.073 1.197a12.5 12.5 0 0 1-9.297 5.361zm11.521-12.471A12.435 12.435 0 0 1 43.61 26.8l-2.064-1.192a10.127 10.127 0 0 0 .008-8.344l2.064-1.192a12.412 12.412 0 0 1 1.22 5.353zM33.33 8.967a12.503 12.503 0 0 1 9.295 5.37l-2.073 1.196a10.124 10.124 0 0 0-7.222-4.187zm7.129 12.458a8.144 8.144 0 0 1-8.13 8.14c-10.794-.446-10.804-15.824 0-16.27a8.138 8.138 0 0 1 8.13 8.13zM31.329 8.966v2.38a10.138 10.138 0 0 0-7.226 4.177l-2.073-1.196a12.518 12.518 0 0 1 9.3-5.36zm-10.295 7.095 2.064 1.192a10.022 10.022 0 0 0-.003 8.343l-2.064 1.192a12.473 12.473 0 0 1 .003-10.727z" fill="currentColor" opacity="1" data-original="#000000"></path>
                          <path d="M32.322 22.446a1.276 1.276 0 1 1-1.225 1.632 1 1 0 0 0-1.921.556 3.29 3.29 0 0 0 2.146 2.202v.352a1 1 0 0 0 2 0v-.363a3.272 3.272 0 0 0-1-6.38A1.276 1.276 0 1 1 33.57 18.9a1 1 0 0 0 1.956-.418 3.287 3.287 0 0 0-2.204-2.423c.082-.687-.226-1.374-1-1.385-.78.016-1.08.697-1 1.392a3.272 3.272 0 0 0 1 6.38z" fill="currentColor" opacity="1" data-original="#000000"></path>
                        </g>
                      </svg>