<svg xmlns="http://www.w3.org/2000/svg" version="1.1" xmlns:xlink="http://www.w3.org/1999/xlink" x="0" y="0" viewBox="0 0 64 64" style="enable-background:new 0 0 512 512" xml:space="preserve">
                        <g>
                          <path d="m57.936 58.647-4.47-11.871a9.542 9.542 0 0 0-5.914-5.693l-7.659-2.609-1.944-2.116v-2.62a13.043 13.043 0 0 0 4.739-5.175 14.256 14.256 0 0 0 3.237.14 2.909 2.909 0 0 0 2.905-2.906v-5.382a2.895 2.895 0 0 0-1.495-2.523 13.84 13.84 0 0 0-2.807-7.777 1 1 0 0 0-1.597 1.205 11.879 11.879 0 0 1 2.386 6.19c-.012-.01-2.017.036-1.987-.023-4.064-11.113-18.668-11.126-22.702.024h-1.875c.73-9.938 13.556-14.987 21.539-8.81a1 1 0 0 0 1.196-1.605c-9.394-7.24-24.311-1.02-24.754 10.758a2.895 2.895 0 0 0-1.566 2.561v5.382a2.909 2.909 0 0 0 2.905 2.906c.4-.042 2.932.115 3.213-.122a12.843 12.843 0 0 0 4.542 5.038v2.757l-1.825 2.184-7.553 2.521a9.547 9.547 0 0 0-5.917 5.695l-4.47 11.871a1.008 1.008 0 0 0 .935 1.352H49.97a1 1 0 0 0 0-2H36.123l-2.985-7.876 2.014-2.491 2.009 1.746a1.007 1.007 0 0 0 1.643-.594l1.322-8.118 6.785 2.312a7.549 7.549 0 0 1 4.682 4.504L55.555 58H53.97a1 1 0 0 0 0 2H57a1.007 1.007 0 0 0 .936-1.353zm-13.77-39.136h1.759a.906.906 0 0 1 .905.904v5.382a.906.906 0 0 1-.905.906h-1.759zm-24.334 7.192h-1.759a.906.906 0 0 1-.905-.906v-5.382a.906.906 0 0 1 .905-.904h1.76s.038 5.959 0 7.192zm12.146-15.6a10.16 10.16 0 0 1 9.15 6.288L38.85 18.43a4.677 4.677 0 0 1-4.986-.747 6.633 6.633 0 0 0-7.78-.736l-3.91 2.325c1.2-4.704 5.135-8.169 9.803-8.169zM21.832 23.168V21.8l5.273-3.133a4.632 4.632 0 0 1 5.433.51 6.72 6.72 0 0 0 7.15 1.07l2.098-.957a12.113 12.113 0 0 1 .38 2.98c-.464 14.245-18.826 15.065-20.334.9zM35.95 34.706v1.718l-3.968 5.464-4.153-5.473v-1.78a11.242 11.242 0 0 0 8.12.071zm-9.164 3.643 3.852 5.075-3.771 3.28-1.206-7.008zM8.444 58l3.96-10.516a7.551 7.551 0 0 1 4.681-4.505l6.724-2.245 1.387 8.06a1.007 1.007 0 0 0 1.641.585l2.01-1.746 2.013 2.491L27.875 58zm25.54 0h-3.97L32 52.763zm-1.985-9.65-1.642-2.03 1.642-1.428 1.642 1.427zm5.12-1.658-3.772-3.28 3.693-5.085 1.224 1.332z" fill="currentColor" opacity="1" data-original="currentColor"></path>
                        </g>
                      </svg>