<svg xmlns="http://www.w3.org/2000/svg" version="1.1" xmlns:xlink="http://www.w3.org/1999/xlink" x="0" y="0" viewBox="0 0 64 64" style="enable-background:new 0 0 512 512" xml:space="preserve">
                        <g>
                          <path d="M35.719 21.413a1 1 0 0 0-1.586 1.218 15.554 15.554 0 0 1 1.806 3.012h-6.1a19.93 19.93 0 0 0-3.417-8.42 15.637 15.637 0 0 1 5.012 2.652 1 1 0 0 0 1.245-1.565 17.676 17.676 0 1 0-11.002 31.51c14.511.067 22.936-16.94 14.042-28.407zm.966 6.23a15.507 15.507 0 0 1 .001 8.994h-6.533a35.942 35.942 0 0 0-.001-8.995zM29.84 38.635h6.102a15.688 15.688 0 0 1-9.534 8.447 19.91 19.91 0 0 0 3.432-8.447zm-1.402-6.491a34.461 34.461 0 0 1-.292 4.492h-12.94a34.731 34.731 0 0 1 .001-8.995h12.938a34.461 34.461 0 0 1 .293 4.503zm-6.812-15.67c2.533-.006 5.021 3.488 6.193 9.168H15.535c1.138-5.63 3.672-9.12 6.092-9.168zm-4.683.734a19.903 19.903 0 0 0-3.429 8.434H7.417a15.707 15.707 0 0 1 9.527-8.434zM6 32.149a15.682 15.682 0 0 1 .671-4.507h6.53a35.936 35.936 0 0 0 0 8.995H6.67A15.558 15.558 0 0 1 6 32.15zm1.413 6.487h6.1a19.912 19.912 0 0 0 3.43 8.446 15.69 15.69 0 0 1-9.53-8.446zm8.118 0h12.29c-2.589 12.171-9.703 12.166-12.29 0zM16.844 8.31H38.91a8.42 8.42 0 0 1 8.4 8.106l-2.018-2.018a1 1 0 0 0-1.414 1.414l3.74 3.74a1 1 0 0 0 1.414 0l3.74-3.74a1 1 0 0 0-1.413-1.414l-2.048 2.047A10.421 10.421 0 0 0 38.911 6.31H16.844a1 1 0 0 0 0 2zM50.105 44.448a1 1 0 0 0-1.413 0l-3.74 3.74a1 1 0 1 0 1.413 1.414l2.018-2.018a8.419 8.419 0 0 1-8.4 8.107H17.916a1 1 0 0 0 0 2h22.067a10.42 10.42 0 0 0 10.401-10.136l2.048 2.047a1 1 0 0 0 1.413-1.414zM58.589 27.13a1 1 0 0 0-1.694 1.062 7.174 7.174 0 1 1-2.549-2.453 1 1 0 1 0 .992-1.736 9.2 9.2 0 1 0-4.545 17.195c7.082.128 11.668-8.14 7.796-14.068z" fill="currentColor" opacity="1" data-original="#000000"></path>
                          <path d="M49.754 34.379a1.001 1.001 0 0 0-1.238-.682c-1.769.767.123 2.972 1.275 3.302a1 1 0 1 0 2-.024 3.075 3.075 0 0 0-1-5.975 1.078 1.078 0 1 1 1.053-1.306 1 1 0 0 0 1.187.77c1.894-.7-.034-3.134-1.24-3.463a1 1 0 1 0-2 .024 3.075 3.075 0 0 0 1 5.975 1.079 1.079 0 1 1-1.037 1.379z" fill="currentColor" opacity="1" data-original="#000000"></path>
                        </g>
                      </svg>