<svg xmlns="http://www.w3.org/2000/svg" version="1.1" xmlns:xlink="http://www.w3.org/1999/xlink" x="0" y="0" viewBox="0 0 64 64" style="enable-background:new 0 0 512 512" xml:space="preserve">
                        <g>
                          <path d="M38.972 31.507a7.01 7.01 0 0 0-4.32-12.487H23.604a3.001 3.001 0 0 0-2.998 2.998v19.988a3.001 3.001 0 0 0 2.998 2.998h12.8c7.723-.104 9.639-10.635 2.568-13.497zm-16.367-9.49a1 1 0 0 1 1-.999h11.047a4.997 4.997 0 1 1 0 9.994H22.605zm13.798 20.988H23.604a1 1 0 0 1-.999-1v-8.994h13.798a4.997 4.997 0 0 1 0 9.994z" fill="currentColor" opacity="1" data-original="#000000"></path>
                          <path d="M51.798 12.238a27.71 27.71 0 0 0-3.132-2.708 1 1 0 0 0-1.186 1.609 25.317 25.317 0 0 1 2.162 1.82l-2.117 2.117A22.896 22.896 0 0 0 33.002 9.05V6.057a25.425 25.425 0 0 1 11.2 3.02 1 1 0 0 0 .946-1.761C26.702-2.634 3.907 11.036 4.02 32.012c-.31 15.036 12.945 28.294 27.983 27.983 24.827-.03 37.332-30.174 19.795-47.757zm-.734 2.126a25.768 25.768 0 0 1 6.899 16.648h-3A22.896 22.896 0 0 0 48.94 16.49zm-38.123 0 2.118 2.117A22.815 22.815 0 0 0 9.05 31.012H6.043a25.768 25.768 0 0 1 6.898-16.648zM6.043 33.01h2.999a22.896 22.896 0 0 0 6.025 14.524L12.94 49.66A25.768 25.768 0 0 1 6.043 33.01zm24.96 24.96a25.768 25.768 0 0 1-16.648-6.898l2.125-2.125a22.896 22.896 0 0 0 14.523 6.025zm-19.988-25.96a20.892 20.892 0 0 1 11.64-18.784 1 1 0 0 0-.892-1.788 23.283 23.283 0 0 0-5.294 3.626l-2.114-2.114a25.768 25.768 0 0 1 16.648-6.9v3.01a22.7 22.7 0 0 0-5.356.865 1 1 0 0 0 .558 1.918c13.1-3.976 26.996 6.454 26.785 20.168-1.15 27.836-40.823 27.84-41.975 0zm21.987 25.96v-2.998a22.896 22.896 0 0 0 14.523-6.025l2.125 2.125a25.768 25.768 0 0 1-16.648 6.899zm18.062-8.311-2.125-2.125a22.896 22.896 0 0 0 6.024-14.524h3a25.768 25.768 0 0 1-6.9 16.649z" fill="currentColor" opacity="1" data-original="#000000"></path>
                        </g>
                      </svg>