<svg xmlns="http://www.w3.org/2000/svg" version="1.1" xmlns:xlink="http://www.w3.org/1999/xlink" x="0" y="0" viewBox="0 0 64 64" style="enable-background:new 0 0 512 512" xml:space="preserve">
                        <g>
                          <path d="M50.327 4H25.168a6.007 6.007 0 0 0-6 6v5.11h-8.375a3.154 3.154 0 0 0-3.12 3.18v5.47a1 1 0 0 0 .724.961 3.204 3.204 0 0 1 0 6.097 1 1 0 0 0-.724.962v5.49a3.154 3.154 0 0 0 3.12 3.18H34.5c-2.147 8.057 9.408 12.135 12.77 4.441a1 1 0 0 0-1.841-.779 4.778 4.778 0 1 1-4.403-6.636c1.039-.159 2.453 1.082 3.063-.225.449-1.37-1.383-1.598-2.336-1.734V31.8a1 1 0 0 0-.72-.96 3.21 3.21 0 0 1 0-6.11 1 1 0 0 0 .72-.96v-5.48a3.154 3.154 0 0 0-3.12-3.18H21.168V10a4.004 4.004 0 0 1 4-4h3.21l1.24 3.066a3.982 3.982 0 0 0 3.708 2.503h8.826a3.984 3.984 0 0 0 3.71-2.503L47.1 6h3.228a4.004 4.004 0 0 1 4 4v1.6a1 1 0 0 0 2 0V10a6.007 6.007 0 0 0-6-6ZM38.633 17.11a1.153 1.153 0 0 1 1.12 1.18v4.792a5.234 5.234 0 0 0 0 9.405V35.6a6.789 6.789 0 0 0-4.333 2.85H10.793a1.153 1.153 0 0 1-1.12-1.18v-4.8a5.232 5.232 0 0 0 0-9.401V18.29a1.153 1.153 0 0 1 1.12-1.18Zm5.375-8.793a1.994 1.994 0 0 1-1.856 1.252h-8.826a1.991 1.991 0 0 1-1.854-1.252l-.934-2.312H44.94Z" fill="currentColor" opacity="1" data-original="#000000"></path>
                          <path d="M55.327 14.6a1 1 0 0 0-1 1V54a4.004 4.004 0 0 1-4 4H25.168a4.004 4.004 0 0 1-4-4V43.45a1 1 0 0 0-2 0V54a6.007 6.007 0 0 0 6 6h25.16a6.007 6.007 0 0 0 6-6V15.6a1 1 0 0 0-1-1Z" fill="currentColor" opacity="1" data-original="#000000"></path>
                          <path d="M41.185 54.52a1 1 0 0 0 0-2h-6.891a1 1 0 0 0 0 2ZM24.713 28.383a.853.853 0 1 1-.835 1.028.998.998 0 0 0-1.184-.775c-1.765.61-.18 2.94 1.017 3.265-.271 1.919 2.27 1.926 2-.003a2.852 2.852 0 0 0-.998-5.515.851.851 0 1 1 .821-1.084 1 1 0 0 0 1.926-.54 2.857 2.857 0 0 0-1.749-1.893v-.518a1 1 0 0 0-2 0v.521a2.852 2.852 0 0 0 1.002 5.514Z" fill="currentColor" opacity="1" data-original="#000000"></path>
                          <path d="M24.713 36.43a9.092 9.092 0 0 0 9.082-9.082c-.499-12.047-17.666-12.045-18.163 0a9.092 9.092 0 0 0 9.08 9.082Zm0-16.163a7.09 7.09 0 0 1 7.082 7.081c-.371 9.388-13.793 9.387-14.163 0a7.09 7.09 0 0 1 7.08-7.081ZM46.413 37.53l-4.757 4.757-1.68-1.68a1 1 0 0 0-1.413 1.415l2.386 2.386a1 1 0 0 0 1.414 0l5.464-5.464a1 1 0 0 0-1.414-1.414Z" fill="currentColor" opacity="1" data-original="#000000"></path>
                        </g>
                      </svg>