<svg xmlns="http://www.w3.org/2000/svg" version="1.1" xmlns:xlink="http://www.w3.org/1999/xlink" x="0" y="0" viewBox="0 0 64 64" style="enable-background:new 0 0 512 512" xml:space="preserve">
                        <g>
                          <path d="M49.5 4H24.34a6.007 6.007 0 0 0-6 6v5.29a1 1 0 0 0 2 0V10a4.005 4.005 0 0 1 4-4h3.218l1.237 3.066a3.984 3.984 0 0 0 3.71 2.503h8.826a3.984 3.984 0 0 0 3.71-2.503L46.277 6H49.5a4.004 4.004 0 0 1 4 4v44a4.004 4.004 0 0 1-4 4H24.34a4.005 4.005 0 0 1-4-4V39.42h11.8a6.774 6.774 0 0 0 12.998 2.159 1 1 0 0 0-1.842-.78 4.778 4.778 0 1 1-2.638-6.3 1 1 0 0 0 1.298-.56c.446-1.634-1.965-1.701-3.062-1.776a6.785 6.785 0 0 0-6.6 5.257H13.502a3.003 3.003 0 0 1-3-3v-7.932h27.4v2.672a1 1 0 0 0 2 0v-5.87a5.006 5.006 0 0 0-5-5H13.5a5.006 5.006 0 0 0-5 5c.007 1.424-.005 9.521 0 11.13a5.006 5.006 0 0 0 5 5h4.84V54a6.007 6.007 0 0 0 6 6H49.5a6.007 6.007 0 0 0 6-6V10a6.007 6.007 0 0 0-6-6zm-6.314 4.317a1.994 1.994 0 0 1-1.855 1.252h-8.827a1.992 1.992 0 0 1-1.854-1.252l-.934-2.312H44.12zM10.501 23.29a3.003 3.003 0 0 1 3-3h21.4a3.003 3.003 0 0 1 3 3v1.198H10.5z" fill="currentColor" opacity="1" data-original="#000000"></path>
                          <path d="M33.472 52.52a1 1 0 0 0 0 2h6.89a1 1 0 0 0 0-2zM37.844 37.294a1 1 0 0 0-1.414 1.415l2.387 2.387a1 1 0 0 0 1.414 0l5.464-5.465a1 1 0 0 0-1.414-1.414l-4.757 4.757zM13.29 33.143a1 1 0 0 0 0 2h2.45a1 1 0 0 0 0-2z" fill="currentColor" opacity="1" data-original="#000000"></path>
                        </g>
                      </svg>